PathFileType	4	(X/Y/Z)	E:\Marcel_BSc\Ayumi_22_01_2025\22-01-2025\conv_dl_1.trc
DataRate	CameraRate	NumFrames	NumMarkers	Units	OrigDataRate	OrigDataStartFrame	OrigNumFrames
200.0	200.0	4	47	mm	200.0	1223	2445	
Frame#	Time	FHD			LBHD			RBHD			RBAR			LBAR			RSACR			LSACR			USACR			C7			CLAV			T10			RSHO			LSHO			LTHI1			LTHI3			LTHI2			LTIB1			LTIB2			LTIB3			LMMAL			LLMAL			LHEE			LMT1			LMT5			LMT3			RTHI1			RTHI2			RTHI3			RTIB1			RTIB3			RTIB2			RLMAL			RMMAL			RHEE			RMT5			RMT1			RMT3			LDUPA			LMUPA			LUUPA			LRAD			RUL			RRAD			RUFIN			RMUPA			RDUPA			RUUPA			
		X1	Y1	Z1	X2	Y2	Z2	X3	Y3	Z3	X4	Y4	Z4	X5	Y5	Z5	X6	Y6	Z6	X7	Y7	Z7	X8	Y8	Z8	X9	Y9	Z9	X10	Y10	Z10	X11	Y11	Z11	X12	Y12	Z12	X13	Y13	Z13	X14	Y14	Z14	X15	Y15	Z15	X16	Y16	Z16	X17	Y17	Z17	X18	Y18	Z18	X19	Y19	Z19	X20	Y20	Z20	X21	Y21	Z21	X22	Y22	Z22	X23	Y23	Z23	X24	Y24	Z24	X25	Y25	Z25	X26	Y26	Z26	X27	Y27	Z27	X28	Y28	Z28	X29	Y29	Z29	X30	Y30	Z30	X31	Y31	Z31	X32	Y32	Z32	X33	Y33	Z33	X34	Y34	Z34	X35	Y35	Z35	X36	Y36	Z36	X37	Y37	Z37	X38	Y38	Z38	X39	Y39	Z39	X40	Y40	Z40	X41	Y41	Z41	X42	Y42	Z42	X43	Y43	Z43	X44	Y44	Z44	X45	Y45	Z45	X46	Y46	Z46	X47	Y47	Z47	
1223	6.105	65.228325	1595.5642	-612.40088	76.803223	1577.8936	-551.00946	104.99426	1560.6398	-681.72772	201.49181	710.27838	-1718.4907	160.68665	683.24164	503.63373	410.62347	972.31464	-663.51605	409.22046	975.28845	-590.21796	404.17532	985.23431	-627.13519	235.93045	1386.8137	-604.06049	118.60699	1280.7728	-607.78772	351.00186	1144.1802	-619.88873	114.43083	1295.9534	-763.11719	146.95403	1294.9082	-435.33902	297.77087	612.46466	-440.7012	301.11871	546.74738	-453.24094	254.56291	560.99066	-439.02213	250.17416	241.54062	-436.58478	301.20547	237.64142	-439.46649	271.67438	179.31175	-443.04993	261.36346	75.594673	-527.28564	281.0166	70.821388	-452.47632	320.17816	35.257824	-496.64462	122.81654	44.754665	-488.43961	147.42319	27.03532	-411.94376	123.55265	41.114586	-454.3718	307.82358	611.54083	-806.48444	264.79065	562.13306	-806.83423	312.88821	547.87091	-794.8396	257.72217	281.0936	-808.88287	275.54205	217.90335	-800.59241	307.71378	274.8132	-805.30371	277.08252	74.070633	-781.24707	244.66759	82.577835	-710.90979	317.52313	31.582024	-736.85089	139.05913	30.911093	-811.01056	115.05209	43.955086	-748.60803	120.69369	40.367332	-779.78619	246.05722	1089.2783	-377.59698	196.08632	1092.4113	-382.77869	199.93858	1154.1309	-383.05283	206.73895	765.80688	-337.10513	141.38058	775.46521	-892.66583	143.41765	768.27191	-829.70056	141.57155	692.62012	-831.47552	154.51819	1178.4404	-836.68573	153.94963	1117.6715	-850.15265	202.7838	1179.9476	-846.59558
1224	6.11	67.631805	1597.7725	-612.21362	79.300087	1579.8634	-551.12738	107.68661	1563.2157	-681.70184	201.47672	713.48071	-1718.3406	160.06628	686.63068	503.48712	409.02899	972.3136	-663.30334	407.51202	975.15375	-589.96173	402.38702	985.01355	-626.93005	239.5072	1388.6079	-604.30115	120.90084	1284.2592	-607.93561	351.12146	1144.1725	-619.58948	117.44448	1299.5802	-763.63788	149.54909	1298.512	-435.39081	296.92859	612.93665	-440.69287	300.81961	547.30133	-453.22357	254.20148	561.08484	-439.11087	250.46646	241.7337	-436.67279	301.6059	237.6337	-439.52646	271.97092	179.41776	-443.06165	261.388	75.615791	-527.24426	281.07251	70.803085	-452.47113	320.16959	35.265175	-496.66531	122.81159	44.739319	-488.46689	147.42485	27.037628	-411.94229	123.56649	41.094414	-454.40619	307.0961	612.11975	-805.99921	264.26877	562.3999	-806.32385	312.90927	548.18457	-794.43921	257.74811	281.55063	-808.53442	275.64145	218.03528	-800.34802	307.96393	275.01108	-804.92017	277.0368	74.185768	-781.11285	244.60222	82.605515	-710.79553	317.49191	31.656105	-736.81842	139.07593	30.962118	-811.01611	115.06679	43.790657	-748.52429	120.69488	40.309456	-779.65991	246.47682	1091.8398	-377.48672	197.18848	1096.0297	-382.2821	200.66406	1157.2366	-383.3772	206.3351	768.74353	-337.27725	141.20897	778.54016	-892.84601	143.12395	771.24805	-829.90485	141.24535	695.62231	-831.59381	156.58907	1181.486	-837.16418	155.59045	1120.6193	-850.50531	204.90782	1182.5388	-846.90344
1225	6.115	69.997803	1599.6594	-612.12561	81.792915	1581.8127	-551.08282	110.39792	1565.5354	-681.71826	201.18063	715.83301	-1718.79	159.46471	689.96967	503.36938	407.33817	972.21204	-663.08472	405.79358	975.01581	-589.77478	400.84698	985.1001	-626.76929	243.06723	1390.422	-604.51025	123.10991	1287.5513	-608.11835	351.15228	1144.1793	-619.32867	120.43118	1303.0284	-764.13232	152.06612	1302.0618	-435.46924	296.18292	613.29004	-440.59009	300.52924	547.7804	-453.15854	253.79247	561.18005	-439.11227	250.82362	241.93066	-436.68808	302.10272	237.01237	-439.4465	272.27554	179.53534	-443.08426	261.38901	75.619469	-527.20374	281.08438	70.821854	-452.42209	320.18869	35.292282	-496.62042	122.83646	44.716888	-488.46988	147.40723	27.04302	-411.93893	123.5727	41.102043	-454.4223	306.14813	612.41205	-805.49402	263.64737	562.48608	-805.82068	312.49631	548.6012	-794.01282	257.84009	281.51297	-808.28296	275.60321	218.29289	-800.02472	307.99142	275.2692	-804.52997	276.98288	74.253212	-780.9328	244.45331	82.577942	-710.64917	317.43903	31.725138	-736.73987	139.0787	31.013693	-811.02942	115.08805	43.653435	-748.45569	120.68806	40.221275	-779.54633	246.88928	1094.4417	-377.3515	197.7386	1098.9773	-382.332	201.64282	1160.1079	-383.23923	205.9845	771.64276	-337.39218	141.33998	781.80408	-893.13763	142.84485	774.13989	-830.63293	140.84492	698.44775	-831.87103	158.67548	1184.3075	-837.70227	157.12927	1123.5544	-850.83051	206.96715	1185.0354	-847.23407
1226	6.12	72.359848	1601.2666	-612.21478	84.325439	1583.4395	-551.03741	113.01234	1567.7603	-681.67188	201.21489	719.18665	-1718.6161	158.64767	693.21191	503.01297	405.59293	972.14313	-662.91528	404.02875	974.93561	-589.5979	399.09503	984.75671	-626.51117	246.58569	1392.301	-604.67224	125.35402	1290.7777	-608.23206	351.16669	1144.0664	-619.08118	123.35734	1306.3516	-764.61084	154.60103	1305.4083	-435.55933	295.41473	613.68591	-440.45435	300.29385	548.19409	-453.05719	253.41019	561.2688	-439.10074	251.35854	242.00378	-436.6091	302.55225	237.02873	-439.50717	272.65228	179.64221	-443.0506	261.44092	75.668289	-527.13202	281.11053	70.807182	-452.34406	320.20905	35.27066	-496.57693	122.81529	44.775349	-488.44266	147.41092	27.042011	-411.93201	123.58488	41.107414	-454.42313	305.0921	612.77496	-804.98938	262.85498	562.67438	-805.26123	311.75092	548.90979	-793.53931	257.68518	281.72086	-807.94843	275.5004	218.50476	-799.75153	307.86938	275.5228	-804.11926	276.90909	74.335838	-780.73022	244.29536	82.537674	-710.45917	317.38345	31.787958	-736.65948	139.06873	31.054934	-810.99835	115.09771	43.551994	-748.37427	120.68942	40.120739	-779.43738	247.3494	1096.9406	-377.20724	197.58864	1101.3293	-383.09756	202.62029	1162.9506	-383.11722	205.67665	774.41797	-337.62155	140.96037	784.35211	-893.41559	142.59676	777.09485	-830.37036	140.49719	701.2663	-831.98999	160.52913	1187.2084	-838.08966	158.63142	1126.3396	-851.17578	208.91925	1187.4548	-847.62848
